<?xml version="1.0" ?><!DOCTYPE svg  PUBLIC '-//W3C//DTD SVG 1.1//EN'  'http://www.w3.org/Graphics/SVG/1.1/DTD/svg11.dtd'><svg  height="8.4666mm" style="shape-rendering:geometricPrecision; text-rendering:geometricPrecision; image-rendering:optimizeQuality; fill-rule:evenodd; clip-rule:evenodd" version="1.1" viewBox="0 0 846.66 846.66" width="8.4666mm" xml:space="preserve" xmlns="http://www.w3.org/2000/svg" xmlns:xlink="http://www.w3.org/1999/xlink"><defs><style type="text/css">
   <![CDATA[
    .fil0 {fill:#84e;fill-rule:nonzero}
   ]]>
  </style></defs><g id="Layer_x0020_1"><path class="fil0" d="M636.27 796.34c27.27,0 27.27,41.46 0,41.46l-543.01 0c-11.45,0 -20.73,-9.28 -20.73,-20.73l0 -787.48c0,-11.45 9.28,-20.73 20.73,-20.73l406.15 0c6.99,0 13.18,3.47 16.94,8.78l136.2 173.25c2.98,3.8 4.43,8.31 4.43,12.8l0.02 270.58c0,11.45 -9.28,20.73 -20.73,20.73 -11.45,0 -20.73,-9.28 -20.73,-20.73l0 -263.45 -126.17 -160.5 -375.38 0 0 746.02 522.28 0zm-377.01 -685.5l171.72 0c11.45,0 20.73,9.28 20.73,20.73l0 95.89c0,11.45 -9.28,20.74 -20.73,20.74l-171.72 0c-11.45,0 -20.74,-9.29 -20.74,-20.74l0 -95.89c0,-11.45 9.29,-20.73 20.74,-20.73zm150.98 41.46l-130.25 0 0 54.43 130.25 0 0 -54.43zm306.14 500.34c5.82,-40.89 -22.47,-78.6 -63.37,-84.43 -40.89,-5.82 -78.6,22.47 -84.42,63.37 -5.83,40.88 22.47,78.6 63.36,84.42 40.89,5.83 78.6,-22.47 84.43,-63.36zm11.15 68.37l42.2 56.24c16.3,21.73 -16.74,46.51 -33.04,24.78l-42.2 -56.22c-21.57,10.87 -45.47,14.44 -68.37,11.17 -63.43,-9.03 -107.55,-67.81 -98.52,-131.23 9.03,-63.35 67.89,-107.54 131.24,-98.52 63.35,9.03 107.54,67.89 98.52,131.24 -3.27,22.91 -13.37,44.86 -29.83,62.54zm-532.72 -205.69c-27.27,0 -27.27,-41.47 0,-41.47l178.24 0c27.27,0 27.27,41.47 0,41.47l-178.24 0zm0 -178.09c-27.27,0 -27.27,-41.46 0,-41.46l178.24 0c27.27,0 27.27,41.46 0,41.46l-178.24 0zm0 89.05c-27.27,0 -27.27,-41.47 0,-41.47l178.24 0c27.27,0 27.27,41.47 0,41.47l-178.24 0z"/></g></svg>